<svg width="1200" height="800" viewBox="0 0 1200 800" fill="none" xmlns="http://www.w3.org/2000/svg">
<path d="M577.081 666.667C724.357 666.667 843.747 547.277 843.747 400.001C843.747 252.725 724.357 133.334 577.081 133.334C429.805 133.334 310.414 252.725 310.414 400.001C310.414 547.277 429.805 666.667 577.081 666.667Z" fill="#94A3B8"/>
<path d="M561.335 187.544C562.986 187.544 564.325 186.205 564.325 184.554C564.325 182.903 562.986 181.564 561.335 181.564C559.684 181.564 558.346 182.903 558.346 184.554C558.346 186.205 559.684 187.544 561.335 187.544Z" fill="white"/>
<path d="M592.028 191.53C593.679 191.53 595.017 190.191 595.017 188.54C595.017 186.889 593.679 185.551 592.028 185.551C590.377 185.551 589.038 186.889 589.038 188.54C589.038 190.191 590.377 191.53 592.028 191.53Z" fill="white"/>
<path d="M632.286 245.739C633.937 245.739 635.276 244.4 635.276 242.749C635.276 241.098 633.937 239.76 632.286 239.76C630.635 239.76 629.297 241.098 629.297 242.749C629.297 244.4 630.635 245.739 632.286 245.739Z" fill="white"/>
<path d="M411.46 524.762C413.111 524.762 414.45 523.424 414.45 521.773C414.45 520.122 413.111 518.783 411.46 518.783C409.809 518.783 408.471 520.122 408.471 521.773C408.471 523.424 409.809 524.762 411.46 524.762Z" fill="white"/>
<path d="M419.233 548.68C420.884 548.68 422.222 547.342 422.222 545.691C422.222 544.04 420.884 542.701 419.233 542.701C417.582 542.701 416.243 544.04 416.243 545.691C416.243 547.342 417.582 548.68 419.233 548.68Z" fill="white"/>
<path d="M382.163 527.601C383.399 527.601 384.401 526.598 384.401 525.362C384.401 524.125 383.399 523.123 382.163 523.123C380.926 523.123 379.924 524.125 379.924 525.362C379.924 526.598 380.926 527.601 382.163 527.601Z" fill="white"/>
<path d="M503.737 574.589C504.977 574.589 505.982 573.583 505.982 572.343C505.982 571.103 504.977 570.098 503.737 570.098C502.497 570.098 501.491 571.103 501.491 572.343C501.491 573.583 502.497 574.589 503.737 574.589Z" fill="white"/>
<path d="M694.417 534.974C695.653 534.974 696.655 533.971 696.655 532.735C696.655 531.498 695.653 530.496 694.417 530.496C693.18 530.496 692.178 531.498 692.178 532.735C692.178 533.971 693.18 534.974 694.417 534.974Z" fill="white"/>
<path d="M749.829 474.792C751.069 474.792 752.074 473.786 752.074 472.546C752.074 471.306 751.069 470.301 749.829 470.301C748.588 470.301 747.583 471.306 747.583 472.546C747.583 473.786 748.588 474.792 749.829 474.792Z" fill="white"/>
<path d="M478.226 262.474C479.463 262.474 480.465 261.471 480.465 260.235C480.465 258.998 479.463 257.996 478.226 257.996C476.99 257.996 475.987 258.998 475.987 260.235C475.987 261.471 476.99 262.474 478.226 262.474Z" fill="white"/>
<path d="M539.212 217.685C540.449 217.685 541.451 216.682 541.451 215.446C541.451 214.209 540.449 213.207 539.212 213.207C537.976 213.207 536.974 214.209 536.974 215.446C536.974 216.682 537.976 217.685 539.212 217.685Z" fill="white"/>
<path d="M532.589 213.3C533.826 213.3 534.828 212.298 534.828 211.061C534.828 209.825 533.826 208.822 532.589 208.822C531.353 208.822 530.351 209.825 530.351 211.061C530.351 212.298 531.353 213.3 532.589 213.3Z" fill="white"/>
<path d="M526.61 208.915C527.846 208.915 528.849 207.913 528.849 206.676C528.849 205.44 527.846 204.438 526.61 204.438C525.373 204.438 524.371 205.44 524.371 206.676C524.371 207.913 525.373 208.915 526.61 208.915Z" fill="white"/>
<path d="M487.793 274.04C489.029 274.04 490.031 273.038 490.031 271.801C490.031 270.565 489.029 269.562 487.793 269.562C486.556 269.562 485.554 270.565 485.554 271.801C485.554 273.038 486.556 274.04 487.793 274.04Z" fill="white"/>
<path d="M577.625 157.495C578.861 157.495 579.863 156.493 579.863 155.256C579.863 154.02 578.861 153.018 577.625 153.018C576.388 153.018 575.386 154.02 575.386 155.256C575.386 156.493 576.388 157.495 577.625 157.495Z" fill="white"/>
<path d="M592.379 222.069C593.616 222.069 594.618 221.067 594.618 219.831C594.618 218.594 593.616 217.592 592.379 217.592C591.143 217.592 590.141 218.594 590.141 219.831C590.141 221.067 591.143 222.069 592.379 222.069Z" fill="white"/>
<path d="M569.108 209.46C570.344 209.46 571.347 208.458 571.347 207.221C571.347 205.985 570.344 204.982 569.108 204.982C567.871 204.982 566.869 205.985 566.869 207.221C566.869 208.458 567.871 209.46 569.108 209.46Z" fill="white"/>
<path d="M529.248 226.607C530.484 226.607 531.486 225.604 531.486 224.368C531.486 223.131 530.484 222.129 529.248 222.129C528.011 222.129 527.009 223.131 527.009 224.368C527.009 225.604 528.011 226.607 529.248 226.607Z" fill="white"/>
<path d="M705.033 594.12C706.269 594.12 707.272 593.118 707.272 591.881C707.272 590.645 706.269 589.643 705.033 589.643C703.796 589.643 702.794 590.645 702.794 591.881C702.794 593.118 703.796 594.12 705.033 594.12Z" fill="white"/>
<path d="M407.673 539.167C408.913 539.167 409.919 538.161 409.919 536.921C409.919 535.681 408.913 534.676 407.673 534.676C406.433 534.676 405.428 535.681 405.428 536.921C405.428 538.161 406.433 539.167 407.673 539.167Z" fill="white"/>
<path d="M563.528 568.065C564.768 568.065 565.773 567.06 565.773 565.82C565.773 564.58 564.768 563.574 563.528 563.574C562.288 563.574 561.282 564.58 561.282 565.82C561.282 567.06 562.288 568.065 563.528 568.065Z" fill="white"/>
<path d="M454.057 537.372C455.297 537.372 456.302 536.366 456.302 535.126C456.302 533.886 455.297 532.881 454.057 532.881C452.817 532.881 451.812 533.886 451.812 535.126C451.812 536.366 452.817 537.372 454.057 537.372Z" fill="white"/>
<path d="M473.443 569.014C474.683 569.014 475.688 568.009 475.688 566.769C475.688 565.529 474.683 564.523 473.443 564.523C472.203 564.523 471.197 565.529 471.197 566.769C471.197 568.009 472.203 569.014 473.443 569.014Z" fill="white"/>
<path d="M616.143 549.077C617.38 549.077 618.382 548.075 618.382 546.838C618.382 545.602 617.38 544.6 616.143 544.6C614.907 544.6 613.904 545.602 613.904 546.838C613.904 548.075 614.907 549.077 616.143 549.077Z" fill="white"/>
<path d="M694.815 504.681C696.052 504.681 697.054 503.678 697.054 502.442C697.054 501.205 696.052 500.203 694.815 500.203C693.579 500.203 692.576 501.205 692.576 502.442C692.576 503.678 693.579 504.681 694.815 504.681Z" fill="white"/>
<path d="M754.46 531.931C755.696 531.931 756.698 530.928 756.698 529.692C756.698 528.456 755.696 527.453 754.46 527.453C753.223 527.453 752.221 528.456 752.221 529.692C752.221 530.928 753.223 531.931 754.46 531.931Z" fill="white"/>
<path d="M774.789 544.939C776.025 544.939 777.027 543.936 777.027 542.7C777.027 541.463 776.025 540.461 774.789 540.461C773.552 540.461 772.55 541.463 772.55 542.7C772.55 543.936 773.552 544.939 774.789 544.939Z" fill="white"/>
<path d="M778.129 509.464C779.366 509.464 780.368 508.462 780.368 507.225C780.368 505.989 779.366 504.986 778.129 504.986C776.893 504.986 775.891 505.989 775.891 507.225C775.891 508.462 776.893 509.464 778.129 509.464Z" fill="white"/>
<path d="M481.561 459.239C482.798 459.239 483.8 458.237 483.8 457.001C483.8 455.764 482.798 454.762 481.561 454.762C480.325 454.762 479.322 455.764 479.322 457.001C479.322 458.237 480.325 459.239 481.561 459.239Z" fill="white"/>
<path d="M482.411 511.411C484.062 511.411 485.401 510.072 485.401 508.421C485.401 506.77 484.062 505.432 482.411 505.432C480.76 505.432 479.422 506.77 479.422 508.421C479.422 510.072 480.76 511.411 482.411 511.411Z" fill="white"/>
<path d="M500.349 549.278C502 549.278 503.338 547.939 503.338 546.288C503.338 544.637 502 543.299 500.349 543.299C498.698 543.299 497.359 544.637 497.359 546.288C497.359 547.939 498.698 549.278 500.349 549.278Z" fill="white"/>
<path d="M715.197 509.815C716.848 509.815 718.186 508.477 718.186 506.825C718.186 505.174 716.848 503.836 715.197 503.836C713.545 503.836 712.207 505.174 712.207 506.825C712.207 508.477 713.545 509.815 715.197 509.815Z" fill="white"/>
<path d="M792.526 505.43C794.177 505.43 795.515 504.092 795.515 502.441C795.515 500.79 794.177 499.451 792.526 499.451C790.875 499.451 789.536 500.79 789.536 502.441C789.536 504.092 790.875 505.43 792.526 505.43Z" fill="white"/>
<path d="M754.26 489.088C755.911 489.088 757.25 487.75 757.25 486.099C757.25 484.448 755.911 483.109 754.26 483.109C752.609 483.109 751.271 484.448 751.271 486.099C751.271 487.75 752.609 489.088 754.26 489.088Z" fill="white"/>
<path d="M715.197 490.682C716.848 490.682 718.186 489.344 718.186 487.693C718.186 486.042 716.848 484.703 715.197 484.703C713.545 484.703 712.207 486.042 712.207 487.693C712.207 489.344 713.545 490.682 715.197 490.682Z" fill="white"/>
<path d="M634.619 182.68L642.053 181.969L634.632 181.551C634.518 180.85 634.182 180.204 633.672 179.71C633.162 179.215 632.506 178.899 631.802 178.807L631.091 171.406L630.666 178.867C630.003 179.016 629.403 179.367 628.949 179.872C628.494 180.376 628.208 181.009 628.128 181.684L620.528 182.375L628.181 182.786C628.46 184.069 629.496 185.072 630.799 185.311L631.49 192.938L631.895 185.324C633.27 185.092 634.359 184.035 634.619 182.68ZM509.151 265.444L516.585 264.733L509.164 264.314C509.052 263.613 508.716 262.967 508.205 262.472C507.695 261.977 507.039 261.661 506.334 261.571L505.623 254.17L505.205 261.63C504.541 261.778 503.94 262.129 503.484 262.634C503.028 263.138 502.74 263.772 502.66 264.447L495.06 265.138L502.714 265.55C502.993 266.832 504.029 267.835 505.331 268.075L506.022 275.701L506.434 268.088C507.809 267.862 508.899 266.799 509.151 265.444ZM787.078 484.265L794.512 483.554L787.092 483.135C786.979 482.434 786.643 481.787 786.133 481.293C785.623 480.798 784.966 480.482 784.261 480.391L783.551 472.991L783.132 480.451C782.47 480.601 781.87 480.952 781.415 481.456C780.961 481.961 780.674 482.594 780.594 483.268L772.994 483.959L780.647 484.371C780.927 485.653 781.963 486.656 783.265 486.895L783.956 494.522L784.368 486.909C785.035 486.797 785.653 486.484 786.138 486.012C786.622 485.539 786.95 484.929 787.078 484.265ZM484.039 598.677L491.473 597.967L484.052 597.548C483.939 596.847 483.602 596.201 483.092 595.707C482.582 595.213 481.926 594.896 481.222 594.804L480.511 587.41L480.093 594.864C479.429 595.012 478.828 595.363 478.372 595.867C477.916 596.372 477.628 597.006 477.548 597.681L469.948 598.372L477.601 598.784C477.74 599.416 478.063 599.993 478.529 600.442C478.994 600.891 479.582 601.192 480.219 601.308L480.91 608.935L481.322 601.322C482.69 601.096 483.786 600.033 484.039 598.677ZM763.461 542.873L770.895 542.162L763.474 541.743C763.362 541.042 763.026 540.396 762.515 539.901C762.005 539.406 761.349 539.09 760.644 539L759.933 531.599L759.515 539.053C758.852 539.202 758.252 539.553 757.798 540.058C757.343 540.562 757.057 541.195 756.977 541.87L749.377 542.561L757.03 542.972C757.309 544.255 758.346 545.258 759.648 545.497L760.339 553.124L760.75 545.51C762.112 545.291 763.208 544.228 763.461 542.873Z" fill="white"/>
<path d="M640.319 336.123C609.314 348.175 579.073 358.93 553.556 366.916C501.704 383.152 359.834 427.105 274.134 482.511L281.309 485.301C333.526 455.805 367.467 446.537 400.093 436.273C435.569 425.112 550.254 398.273 602.186 383.657C619.731 378.721 640.279 372.257 662.043 364.391C656.878 357.188 651.535 350.115 646.019 343.179C644.139 340.794 642.232 338.442 640.319 336.123ZM678.2 388.334C670.692 393.403 664.401 397.449 659.997 400C634.486 414.748 510.115 499.651 481.82 519.183C453.526 538.714 374.994 612.855 351.875 634.38L351.078 643.142C425.617 576.177 449.002 559.661 478.631 537.12C515.303 509.218 591.164 457.598 616.947 441.056C641.594 425.245 663.823 410.702 683.773 397.396C683.448 396.851 683.122 396.306 682.797 395.755C681.295 393.29 679.761 390.819 678.2 388.334ZM794.718 265.271C758.405 286.557 701.172 312.247 645.647 334.044C646.975 335.672 648.298 337.313 649.613 338.967C655.818 346.779 661.671 354.645 667.178 362.518C710.825 346.441 758.718 324.863 796.718 298.748C778.615 315.901 718.764 360.631 682.272 385.564C684.152 388.626 685.972 391.689 687.733 394.738C743.019 357.741 780.222 330.51 801.9 312.3C831.795 287.188 899.957 230.985 925.866 155.648C880.418 213.453 826.687 246.53 794.718 265.271Z" fill="#5E6877"/>
<path d="M542.767 466.029C536.888 458.628 528.756 448.716 522.651 441.03C514.68 431.002 507.126 420.65 500.01 409.998C497.751 410.563 495.499 411.128 493.247 411.693C501.605 424.734 510.885 437.755 520.997 450.483C528.384 459.784 535.101 467.271 538.542 471.928C539.24 472.872 540.621 474.958 542.488 477.735L549.005 473.31C546.839 470.959 544.758 468.53 542.767 466.029ZM585.684 504.986C580.854 500.415 569.142 492.782 556.951 481.329C554.26 483.176 551.543 485.049 548.819 486.936C556.692 498.03 567.414 511.656 575.812 515.629C588.461 521.621 591.869 510.846 585.684 504.986ZM649.613 338.967C579.911 251.234 494.762 203.036 458.05 232.207C429.537 254.861 441.243 321.07 480.545 390.62C482.578 389.922 484.591 389.238 486.584 388.56C446.916 320.797 436.061 257.824 462.953 236.453C496.748 209.6 578.349 257.984 646.032 343.172C660.043 360.804 672.36 378.502 682.79 395.755C722.731 461.857 734.988 521.634 707.391 546.036C698.947 553.503 673.144 556.433 639.343 541.219C638.871 541.81 639.628 543.412 640.219 543.804C669.397 555.536 697.346 560.007 711.457 548.799C745.365 521.854 719.316 426.7 649.613 338.967ZM350.673 349.377H395.317L432.785 412.955V363.328C432.785 357.748 425.71 350.473 423.219 349.377H454.111C452.217 349.876 446.139 357.25 446.139 363.328V436.273C446.139 440.757 452.616 446.936 455.705 449.327H412.656L374.589 385.451V435.675C374.589 440.658 379.472 445.441 384.554 449.527H351.669C356.353 447.534 360.837 441.256 361.236 436.273C361.634 431.291 361.236 367.016 361.236 364.225C361.236 358.147 355.356 353.164 350.673 349.377Z" fill="white"/>
<path d="M759.044 449.327H818.436C815.147 448.529 811.46 444.643 809.467 439.461C807.474 434.279 775.984 349.376 775.984 349.376H753.403C746.999 353.987 740.136 358.85 732.809 363.972C732.789 364.158 732.769 364.344 732.736 364.523C731.752 370.502 714.081 434.505 713.005 437.667C711.51 442.052 703.837 446.935 700.748 449.526H732.736C729.547 445.938 726.956 442.451 727.554 438.465C728.152 434.479 729.945 426.506 729.945 426.506H763.03C764.524 430.492 765.64 434.073 766.218 437.468C766.916 441.554 762.731 446.138 759.044 449.327ZM732.935 413.751L744.096 377.279L758.844 413.751H732.935ZM727.906 353.017C729.547 351.808 731.194 350.592 732.835 349.376H724.166C725.029 350.174 726.458 351.429 727.906 353.017ZM500.748 438.465C501.345 434.479 503.139 426.506 503.139 426.506H536.223C537.718 430.492 538.834 434.073 539.412 437.468C540.11 441.554 535.924 446.138 532.237 449.327H584.528C585.617 448.596 586.7 447.865 587.783 447.141C585.757 445.347 583.89 442.657 582.661 439.461C580.668 434.279 549.178 349.376 549.178 349.376H497.359C499.851 351.668 507.026 357.847 505.929 364.523C504.953 370.502 487.275 434.505 486.199 437.667C484.704 442.052 477.031 446.935 473.941 449.526H505.929C502.741 445.938 500.15 442.451 500.748 438.465ZM517.29 377.279L532.038 413.751H506.129L517.29 377.279ZM681.375 398.989C671.623 405.487 661.332 412.27 650.49 419.351C655.353 421.71 659.226 424.673 659.598 428.499C660.289 435.688 645.846 439.162 632.792 437.667C630.181 437.368 627.617 436.684 625.172 435.767C622.462 437.515 619.725 439.275 616.948 441.056C614.124 442.869 610.696 445.101 606.783 447.679V457.996C609.374 452.914 615.041 448.363 619.439 448.131C621.332 448.031 627.909 454.11 655.014 452.615C668.168 451.891 693.579 437.867 693.181 421.723C692.942 412.183 687.959 404.743 681.375 398.989ZM606.776 423.915V434.425C609.175 432.824 611.54 431.25 613.858 429.715C610.211 427.177 607.627 424.806 606.776 423.915ZM672.108 392.392C669.583 390.898 667.026 389.589 664.574 388.433C651.819 382.454 638.466 381.358 635.675 373.286C633.709 367.593 639.263 362.324 652.815 362.524C666.368 362.723 678.924 370.795 682.312 373.685V347.975C681.316 348.971 676.944 353.987 672.945 353.156C665.272 351.562 652.217 349.483 637.27 349.569C620.13 349.669 605.381 362.916 604.883 379.664C604.186 403.082 622.92 409.459 633.483 413.147C634.573 413.525 635.815 413.93 637.163 414.362C647.295 407.772 655.307 402.696 659.997 399.993C663.146 398.179 667.271 395.575 672.108 392.392Z" fill="white"/>
</svg>
