<svg width="1200" height="800" viewBox="0 0 1200 800" fill="none" xmlns="http://www.w3.org/2000/svg">
<path d="M464.343 414.979L458.841 430.57H458.382C457.465 427.054 455.784 421.704 453.032 415.285L423.532 341.151H394.643V459.306H413.749V386.395C413.749 381.81 413.749 376.613 413.596 370.193C413.443 366.983 413.138 364.538 412.985 362.703H413.443C414.361 367.289 415.431 370.652 416.195 372.792L451.657 459H465.108L500.264 372.027C501.028 370.04 501.792 366.066 502.557 362.703H503.015C502.557 371.416 502.251 379.211 502.098 383.95V458.848H522.427V340.845H494.608L464.343 414.979ZM541.687 374.167H561.558V458.848H541.687V374.167ZM551.775 338.4C548.412 338.4 545.661 339.623 543.368 341.763C541.075 343.902 539.853 346.654 539.853 350.017C539.853 353.226 541.075 355.978 543.368 358.118C545.661 360.258 548.412 361.328 551.775 361.328C555.138 361.328 558.042 360.105 560.182 358.118C562.475 355.978 563.698 353.226 563.698 350.017C563.698 346.807 562.475 344.055 560.182 341.763C558.195 339.623 555.291 338.4 551.775 338.4ZM632.023 373.403C628.354 372.639 624.533 372.18 620.864 372.18C611.846 372.18 603.592 374.167 596.714 378.141C589.835 382.116 584.333 387.618 580.817 394.497C577.149 401.528 575.314 409.629 575.314 418.953C575.314 427.054 577.149 434.238 580.664 440.811C584.18 447.231 589.071 452.428 595.644 455.943C601.911 459.459 609.248 461.293 617.502 461.293C626.979 461.293 635.08 459.306 641.5 455.638L641.652 455.485V437.143L640.888 437.754C637.984 439.894 634.621 441.728 631.258 442.798C627.743 444.021 624.533 444.632 621.782 444.632C613.833 444.632 607.566 442.34 603.134 437.295C598.548 432.404 596.255 425.679 596.255 417.272C596.255 408.559 598.548 401.681 603.286 396.637C608.025 391.592 614.292 388.994 621.934 388.994C628.354 388.994 634.927 391.134 640.888 395.414L641.652 396.025V376.613L641.5 376.46C638.901 375.39 635.997 374.167 632.023 373.403ZM697.596 372.792C692.705 372.792 688.12 374.32 684.145 377.53C680.783 380.281 678.49 384.256 676.503 388.994H676.35V374.167H656.479V458.848H676.35V415.59C676.35 408.253 677.878 402.139 681.241 397.707C684.604 393.121 688.884 390.828 694.081 390.828C695.915 390.828 697.749 391.287 700.042 391.592C702.182 392.204 703.711 392.815 704.781 393.58L705.545 394.191V374.32L705.086 374.167C703.711 373.25 700.959 372.792 697.596 372.792ZM751.706 372.333C737.797 372.333 726.638 376.46 718.843 384.561C710.895 392.662 707.073 403.821 707.073 417.883C707.073 431.028 711.047 441.728 718.69 449.524C726.333 457.166 736.727 461.14 749.719 461.14C763.323 461.14 774.176 457.013 781.971 448.759C789.919 440.505 793.741 429.5 793.741 415.896C793.741 402.445 790.072 391.745 782.582 383.95C775.398 376.154 764.852 372.333 751.706 372.333ZM767.603 437.448C763.934 442.187 758.126 444.479 750.942 444.479C743.758 444.479 737.95 442.187 733.823 437.143C729.695 432.404 727.708 425.526 727.708 416.813C727.708 407.795 729.848 400.916 733.823 396.025C737.95 391.134 743.605 388.688 750.789 388.688C757.82 388.688 763.323 390.981 767.297 395.719C771.271 400.458 773.411 407.336 773.411 416.355C773.106 425.526 771.424 432.71 767.603 437.448ZM838.068 409.323C831.801 406.725 827.827 404.738 825.993 403.056C824.464 401.528 823.7 399.388 823.7 396.637C823.7 394.344 824.617 392.051 826.91 390.522C829.203 388.994 831.801 388.23 835.622 388.23C838.985 388.23 842.501 388.841 845.863 389.758C849.226 390.675 852.283 392.051 854.729 393.885L855.493 394.497V375.849L855.035 375.696C852.742 374.779 849.685 373.862 846.016 373.097C842.348 372.486 838.985 372.18 836.234 372.18C826.757 372.18 818.961 374.473 812.847 379.517C806.733 384.256 803.829 390.675 803.829 398.165C803.829 402.139 804.44 405.655 805.816 408.559C807.192 411.463 809.179 414.215 811.93 416.507C814.682 418.647 818.656 421.093 824.158 423.386C828.744 425.373 832.26 426.901 834.399 428.124C836.539 429.347 837.915 430.723 838.985 431.793C839.749 433.016 840.208 434.544 840.208 436.531C840.208 442.187 835.928 444.938 827.215 444.938C823.853 444.938 820.337 444.327 816.21 442.951C812.083 441.575 808.262 439.588 805.052 437.295L804.288 436.684V456.096L804.746 456.249C807.65 457.625 811.166 458.542 815.446 459.612C819.726 460.376 823.547 460.988 826.91 460.988C837.151 460.988 845.558 458.695 851.519 453.651C857.633 448.759 860.843 442.492 860.843 434.391C860.843 428.736 859.314 423.692 855.952 419.87C851.519 416.202 846.016 412.38 838.068 409.323ZM913.271 372.333C899.362 372.333 888.204 376.46 880.408 384.561C872.613 392.662 868.639 403.821 868.639 417.883C868.639 431.028 872.613 441.728 880.255 449.524C887.898 457.166 898.292 461.14 911.284 461.14C924.888 461.14 935.741 457.013 943.536 448.759C951.485 440.505 955.306 429.5 955.306 415.896C955.306 402.445 951.637 391.745 944.148 383.95C936.964 376.154 926.417 372.333 913.271 372.333ZM929.015 437.448C925.347 442.187 919.538 444.479 912.354 444.479C905.017 444.479 899.362 442.187 895.235 437.143C891.108 432.404 889.121 425.526 889.121 416.813C889.121 407.795 891.261 400.916 895.235 396.025C899.362 391.134 905.017 388.688 912.202 388.688C919.08 388.688 924.735 390.981 928.71 395.719C932.684 400.458 934.824 407.336 934.824 416.355C934.824 425.526 932.837 432.71 929.015 437.448ZM1061.54 390.522V374.167H1041.51V349.099L1040.9 349.252L1021.95 354.908L1021.49 355.061V374.167H991.532V363.468C991.532 358.576 992.755 354.755 994.895 352.309C997.035 349.864 1000.24 348.641 1004.22 348.641C1006.97 348.641 1009.87 349.252 1013.08 350.628L1013.85 351.087V333.814L1013.39 333.661C1010.64 332.744 1006.97 332.133 1002.23 332.133C996.27 332.133 991.073 333.508 986.335 335.801C981.597 338.4 978.081 341.915 975.482 346.654C972.884 351.239 971.508 356.436 971.508 362.398V374.167H957.599V390.37H971.508V458.848H991.532V390.522H1021.49V434.086C1021.49 451.969 1029.9 460.988 1046.71 460.988C1049.46 460.988 1052.37 460.529 1055.12 460.07C1058.02 459.459 1060.16 458.695 1061.39 458.083L1061.54 457.931V441.575L1060.77 442.187C1059.55 442.951 1058.48 443.562 1056.65 444.021C1055.12 444.479 1053.74 444.632 1052.67 444.632C1048.7 444.632 1045.95 443.715 1043.96 441.422C1042.13 439.282 1041.21 435.767 1041.21 430.57V390.522H1061.54Z" fill="#94A3B8"/>
<path d="M138.462 301.41H232.161V395.109H138.462V301.41Z" fill="#94A3B8"/>
<path d="M241.942 301.41H335.641V395.109H241.942V301.41Z" fill="#94A3B8"/>
<path d="M138.462 404.891H232.161V498.589H138.462V404.891Z" fill="#94A3B8"/>
<path d="M241.942 404.891H335.641V498.589H241.942V404.891Z" fill="#94A3B8"/>
</svg>
