<svg width="1200" height="800" viewBox="0 0 1200 800" fill="none" xmlns="http://www.w3.org/2000/svg">
<mask id="mask0_775_3856" style="mask-type:luminance" maskUnits="userSpaceOnUse" x="138" y="305" width="924" height="190">
<path d="M138.462 305.096H1061.54V494.906H138.462V305.096Z" fill="white"/>
</mask>
<g mask="url(#mask0_775_3856)">
<path d="M759.174 363.039C779.487 363.039 796.137 379.689 796.137 400.002C796.137 420.315 779.487 436.965 759.174 436.965C738.861 436.965 722.211 420.315 722.211 400.002C722.211 379.356 738.861 363.039 759.174 363.039ZM759.174 338.396C725.208 338.396 697.569 366.036 697.569 400.002C697.569 433.968 725.208 461.607 759.174 461.607C793.14 461.607 820.779 433.968 820.779 400.002C820.779 365.703 793.14 338.396 759.174 338.396Z" fill="#94A3B8"/>
</g>
<mask id="mask1_775_3856" style="mask-type:luminance" maskUnits="userSpaceOnUse" x="138" y="305" width="924" height="190">
<path d="M138.462 305.096H1061.54V494.906H138.462V305.096Z" fill="white"/>
</mask>
<g mask="url(#mask1_775_3856)">
<path d="M376.89 342.059V352.049C366.234 343.391 352.581 338.062 337.929 338.062C303.963 338.062 276.324 365.702 276.324 399.668C276.324 433.634 303.963 461.273 337.929 461.273C352.581 461.273 366.234 455.945 376.89 447.287V457.277H399.534V342.059H376.89ZM339.261 438.296C317.949 438.296 300.966 420.98 300.966 400.001C300.966 378.689 318.282 361.706 339.261 361.706C360.573 361.706 377.556 379.022 377.556 400.001C377.556 420.98 360.24 438.296 339.261 438.296Z" fill="#94A3B8"/>
</g>
<mask id="mask2_775_3856" style="mask-type:luminance" maskUnits="userSpaceOnUse" x="138" y="305" width="924" height="190">
<path d="M138.462 305.096H1061.54V494.906H138.462V305.096Z" fill="white"/>
</mask>
<g mask="url(#mask2_775_3856)">
<path d="M1004.6 342.059V352.049C993.939 343.391 980.286 338.062 965.634 338.062C931.668 338.062 904.029 365.702 904.029 399.668C904.029 433.634 931.668 461.273 965.634 461.273C980.286 461.273 993.939 455.945 1004.6 447.287V457.277H1027.24V342.059H1004.6ZM967.299 438.296C945.987 438.296 929.004 420.98 929.004 400.001C929.004 378.689 946.32 361.706 967.299 361.706C988.611 361.706 1005.59 379.022 1005.59 400.001C1005.59 420.98 988.278 438.296 967.299 438.296Z" fill="#94A3B8"/>
</g>
<mask id="mask3_775_3856" style="mask-type:luminance" maskUnits="userSpaceOnUse" x="138" y="305" width="924" height="190">
<path d="M138.462 305.096H1061.54V494.906H138.462V305.096Z" fill="white"/>
</mask>
<g mask="url(#mask3_775_3856)">
<path d="M861.406 349.385C848.086 357.71 836.764 372.695 836.764 399.335V457.61H861.406V399.335C861.406 361.04 901.033 363.038 901.033 363.038V338.396C900.7 338.396 879.388 337.73 861.406 349.385Z" fill="#94A3B8"/>
</g>
<mask id="mask4_775_3856" style="mask-type:luminance" maskUnits="userSpaceOnUse" x="138" y="305" width="924" height="190">
<path d="M138.462 305.096H1061.54V494.906H138.462V305.096Z" fill="white"/>
</mask>
<g mask="url(#mask4_775_3856)">
<path d="M516.751 350.717C506.428 343.058 493.774 338.396 479.788 338.396C465.802 338.396 453.148 343.058 442.825 350.717C427.84 362.04 418.183 380.022 418.183 400.002V457.944H442.825V400.002C442.825 379.689 459.475 363.039 479.788 363.039C500.101 363.039 516.751 379.689 516.751 400.002V457.944H541.393V400.002C541.393 379.689 531.736 361.707 516.751 350.717Z" fill="#94A3B8"/>
</g>
<mask id="mask5_775_3856" style="mask-type:luminance" maskUnits="userSpaceOnUse" x="138" y="305" width="924" height="190">
<path d="M138.462 305.096H1061.54V494.906H138.462V305.096Z" fill="white"/>
</mask>
<g mask="url(#mask5_775_3856)">
<path d="M669.597 305.096C663.27 305.096 658.275 310.091 658.275 316.418V352.049C647.619 343.391 633.966 338.063 619.314 338.063C585.348 338.063 557.709 365.702 557.709 399.668C557.709 433.634 585.348 461.273 619.314 461.273C633.966 461.273 647.619 455.945 658.275 447.287V457.277H680.919V305.096H669.597ZM620.646 438.296C599.334 438.296 582.351 420.98 582.351 400.001C582.351 378.689 599.667 361.706 620.646 361.706C641.958 361.706 658.941 379.022 658.941 400.001C659.274 420.98 641.958 438.296 620.646 438.296Z" fill="#94A3B8"/>
</g>
<mask id="mask6_775_3856" style="mask-type:luminance" maskUnits="userSpaceOnUse" x="138" y="305" width="924" height="190">
<path d="M138.462 305.096H1061.54V494.906H138.462V305.096Z" fill="white"/>
</mask>
<g mask="url(#mask6_775_3856)">
<path d="M200.067 338.396C185.415 338.396 171.762 343.724 161.106 352.382V342.392H138.462V494.907H149.784C156.111 494.907 161.106 489.912 161.106 483.585V447.621C171.762 456.279 185.415 461.607 200.067 461.607C234.366 461.607 261.672 433.968 261.672 400.002C261.672 365.703 234.366 338.396 200.067 338.396ZM198.735 438.297C177.423 438.297 160.44 420.981 160.44 400.002C160.44 378.69 177.756 361.707 198.735 361.707C219.714 361.707 237.03 379.023 237.03 400.002C237.03 420.981 220.047 438.297 198.735 438.297Z" fill="#94A3B8"/>
</g>
<mask id="mask7_775_3856" style="mask-type:luminance" maskUnits="userSpaceOnUse" x="138" y="305" width="924" height="190">
<path d="M138.462 305.096H1061.54V494.906H138.462V305.096Z" fill="white"/>
</mask>
<g mask="url(#mask7_775_3856)">
<path d="M1050.22 342.058C1043.89 342.058 1038.89 337.063 1038.89 330.736C1038.89 324.409 1043.89 319.414 1050.22 319.414C1056.54 319.414 1061.54 324.409 1061.54 330.736C1061.54 337.063 1056.54 342.058 1050.22 342.058ZM1050.22 320.746C1044.56 320.746 1040.23 325.075 1040.23 330.736C1040.23 336.064 1044.56 340.726 1050.22 340.726C1055.88 340.726 1060.21 336.064 1060.21 330.736C1060.21 325.075 1055.54 320.746 1050.22 320.746ZM1053.21 337.396L1049.88 332.401H1047.55V337.396H1045.89V324.409H1051.22C1053.55 324.409 1055.21 326.074 1055.21 328.405C1055.21 331.402 1052.55 332.401 1051.88 332.401L1055.21 337.729H1053.21V337.396ZM1051.22 325.741H1047.55V330.736H1051.22C1052.21 330.736 1053.55 329.737 1053.55 328.405C1053.55 326.74 1052.21 325.741 1051.22 325.741Z" fill="#94A3B8"/>
</g>
</svg>
