<svg width="1280" height="315" viewBox="0 0 1280 315" fill="none" xmlns="http://www.w3.org/2000/svg">
<g clip-path="url(#clip0_776_3890)">
<path d="M756.487 122.56V122.665C755.848 122.665 755.205 122.771 754.567 122.771C753.928 122.771 753.285 122.665 752.647 122.665C714.568 122.665 690.995 146.454 690.995 184.638V203.411C690.995 240.209 714.889 263.037 753.18 263.037C753.963 263.057 754.748 263.022 755.527 262.931C756.06 262.931 756.487 263.037 757.02 263.037C782.724 263.037 800.647 253.652 812.057 234.237L789.338 221.115C781.764 232.313 771.631 240.742 757.125 240.742C737.714 240.742 726.088 228.795 726.088 208.635V203.302H816.112V181.116C816.112 145.49 792.755 122.56 756.487 122.56ZM754.567 144.428C772.274 145.282 782.94 157.014 782.94 176.32V181.653H725.982V178.557C725.982 157.225 736.115 145.282 754.567 144.428ZM614.732 122.665C597.773 122.665 583.161 129.707 575.481 141.438L573.561 144.424V125.863H541.349V306.022H575.16V243.092L577.08 245.972C584.333 256.744 598.521 263.143 615.053 263.143H615.907H616.652C644.492 263.143 672.543 245.009 672.543 204.371V181.547C672.543 152.32 655.263 122.775 616.436 122.775L616.225 122.669H615.48L614.732 122.665ZM606.84 148.053C626.467 148.374 638.626 161.704 638.626 183.04V202.663C638.626 223.995 626.358 237.223 606.519 237.65C588.067 237.329 575.16 223.25 575.16 203.196V183.036C575.16 162.77 588.173 148.48 606.84 148.053ZM1045.02 78.188L979.951 259.945H1016.54L1029.02 221.012H1100.05V221.44L1112.53 260.051H1149.12L1083.95 78.2939H1080.11L1080 78.188H1045.02ZM1064.43 109.441L1091.63 195.308H1037.01L1064.43 109.441ZM1280 103.787V78.188H1168.42V103.787H1207.57V234.131H1168.42V259.73H1280V234.131H1240.85V103.787H1280ZM912.857 122.669H911.897H911.364C892.485 122.669 879.045 129.068 872.431 141.336L870.405 145.07V125.871H838.192V259.84H872.004V180.054C872.004 161.281 882.137 150.509 899.629 150.188C916.376 150.509 925.976 161.069 925.976 179.309V259.84H959.787V173.545C959.787 141.654 942.296 122.665 912.963 122.665L912.857 122.669ZM432.653 74.4539C382.839 74.4539 351.802 105.495 351.802 155.521V182.507C351.802 232.532 382.733 263.57 432.653 263.57H433.402H434.146C483.96 263.57 514.998 232.532 514.998 182.507V155.521C514.998 105.495 483.96 74.4539 434.146 74.4539H433.402H432.653ZM433.402 101.549C463.056 101.871 480.12 120.855 480.12 153.707V184.427C480.12 217.278 463.056 236.267 433.402 236.584C403.747 236.263 386.679 217.278 386.679 184.427V153.707C386.679 120.855 403.747 101.867 433.402 101.549ZM138.901 0.00480812C104.447 0.00480812 73.8366 22.1906 63.167 54.9364C52.2175 57.1935 41.8742 61.7567 32.8256 68.3224C23.777 74.8882 16.2305 83.3058 10.6883 93.0151C-6.59165 122.881 -2.64583 160.427 20.5038 186.025C13.3567 207.467 15.8096 230.93 27.2237 250.345C44.3979 280.317 78.9541 295.677 112.769 288.53C120.173 296.886 129.274 303.567 139.463 308.129C149.653 312.69 160.698 315.027 171.862 314.983C206.316 314.983 236.927 292.797 247.596 260.051C269.782 255.463 288.876 241.596 299.969 221.972C317.355 192.107 313.409 154.561 290.264 128.962V128.856C293.794 118.258 295.021 107.028 293.862 95.9176C292.703 84.8071 289.185 74.0721 283.544 64.4306C266.366 34.5648 231.806 19.201 198.1 26.3481C190.662 18.0139 181.538 11.3554 171.332 6.81388C161.126 2.27233 150.072 -0.0486193 138.901 0.00480812ZM138.901 20.486L138.795 20.5919C152.662 20.5919 165.997 25.3919 176.662 34.2473C176.235 34.459 175.381 34.9919 174.742 35.3131L112.025 71.4718C108.824 73.286 106.904 76.6989 106.904 80.4331V165.336L79.9179 149.765V79.5789C79.9118 63.9233 86.1206 48.9055 97.1801 37.8247C108.24 26.7439 123.246 20.5101 138.901 20.486ZM214.454 45.2041C224.847 45.1842 235.062 47.9084 244.065 53.1014C253.068 58.2944 260.54 65.7722 265.727 74.7789C272.553 86.726 275.111 100.699 272.764 114.245C272.337 113.923 271.487 113.5 270.95 113.179L208.233 76.9106C206.655 76.0183 204.873 75.5493 203.06 75.5493C201.248 75.5493 199.466 76.0183 197.888 76.9106L124.395 119.362V88.2151L185.087 53.1222C194.01 47.9487 204.139 45.2165 214.454 45.2004V45.2041ZM59.3308 77.4435V152.002C59.3308 155.736 61.2508 159.043 64.4521 160.963L137.835 203.309L110.74 218.987L50.1541 184C36.6146 176.153 26.7417 163.254 22.7026 148.136C18.6636 133.017 20.7885 116.913 28.6108 103.36C35.5113 91.3987 46.3792 82.2327 59.3308 77.4435ZM199.914 95.8951L260.606 130.882C288.873 147.202 298.469 183.255 282.149 211.522L282.255 211.628C275.323 223.575 264.442 232.748 251.535 237.442V162.88C251.535 159.145 249.615 155.733 246.413 153.922L172.924 111.467L199.914 95.8951ZM155.327 121.603L186.262 139.522V175.254L155.327 193.173L124.395 175.254V139.522L155.327 121.603ZM203.966 149.765L230.951 165.336V235.416C230.951 268.056 204.499 294.509 171.968 294.509V294.403C158.207 294.403 144.767 289.603 134.207 280.752C134.634 280.54 135.594 280.003 136.127 279.682L198.844 243.523C202.046 241.709 204.071 238.296 203.962 234.562L203.966 149.765ZM186.364 195.629V226.772L125.673 261.76C97.4057 277.974 61.3528 268.374 45.0329 240.212H45.1387C38.207 228.371 35.7504 214.292 38.0974 200.747C38.5245 201.068 39.3787 201.491 39.9116 201.812L102.629 238.081C104.207 238.973 105.989 239.442 107.801 239.442C109.614 239.442 111.396 238.973 112.974 238.081L186.364 195.629Z" fill="#94A3B8"/>
</g>
<defs>
<clipPath id="clip0_776_3890">
<rect width="1280" height="314.982" fill="white"/>
</clipPath>
</defs>
</svg>
