<svg width="1200" height="800" viewBox="0 0 1200 800" fill="none" xmlns="http://www.w3.org/2000/svg">
<path d="M168.705 429.658C168.705 440.35 171.052 448.558 174.119 453.524C178.141 460.028 184.139 462.784 190.254 462.784C198.141 462.784 205.356 460.827 219.26 441.596C230.4 426.182 243.525 404.546 252.357 390.982L267.313 368.003C277.702 352.044 289.728 334.303 303.515 322.278C314.772 312.463 326.914 307.01 339.134 307.01C359.65 307.01 379.192 318.899 394.148 341.197C410.516 365.617 418.462 396.377 418.462 428.12C418.462 446.99 414.742 460.856 408.413 471.81C402.298 482.404 390.38 492.988 370.331 492.988V462.784C387.498 462.784 391.782 447.01 391.782 428.957C391.782 403.232 385.784 374.683 372.571 354.283C363.194 339.814 351.042 330.973 337.673 330.973C323.214 330.973 311.578 341.878 298.501 361.323C291.549 371.654 284.411 384.244 276.398 398.451L267.576 414.079C249.854 445.501 245.366 452.657 236.505 464.468C220.974 485.15 207.712 492.988 190.254 492.988C169.543 492.988 156.446 484.02 148.335 470.505C141.714 459.493 138.462 445.043 138.462 428.577L168.705 429.658Z" fill="#94A3B8"/>
<path d="M162.308 343.329C176.173 321.956 196.183 307.01 219.133 307.01C232.424 307.01 245.638 310.944 259.435 322.209C274.528 334.527 290.613 354.809 310.682 388.237L317.877 400.233C335.248 429.171 345.131 444.059 350.915 451.08C358.354 460.096 363.564 462.784 370.331 462.784C387.497 462.784 391.782 447.01 391.782 428.957L418.461 428.12C418.461 446.99 414.742 460.856 408.413 471.81C402.298 482.404 390.38 492.988 370.331 492.988C357.867 492.988 346.826 490.281 334.615 478.762C325.229 469.921 314.255 454.215 305.813 440.096L280.701 398.149C268.101 377.097 256.543 361.401 249.854 354.293C242.658 346.649 233.408 337.419 218.646 337.419C206.699 337.419 196.553 345.802 188.062 358.626L162.308 343.329Z" fill="#94A3B8"/>
<path d="M218.647 337.419C206.7 337.419 196.553 345.802 188.063 358.626C176.057 376.747 168.705 403.738 168.705 429.658C168.705 440.35 171.052 448.558 174.119 453.524L148.335 470.505C141.714 459.493 138.462 445.043 138.462 428.577C138.462 398.636 146.68 367.428 162.308 343.329C176.174 321.956 196.183 307.01 219.134 307.01L218.647 337.419Z" fill="#94A3B8"/>
<path d="M477.254 312.893H512.239L571.723 420.507L631.217 312.893H665.443V489.718H636.903V354.197L584.732 448.044H557.955L505.793 354.197V489.718H477.254V312.893ZM754.868 378.822C734.401 378.822 722.074 394.227 719.123 413.302H788.588C787.157 393.652 775.823 378.822 754.868 378.822ZM690.827 424.168C690.827 384.032 716.767 354.821 755.365 354.821C793.33 354.821 815.998 383.662 815.998 426.31V434.149H719.123C722.561 454.898 736.329 468.881 758.529 468.881C776.241 468.881 787.312 463.477 797.809 453.594L812.97 472.162C798.685 485.298 780.516 492.873 757.517 492.873C715.735 492.873 690.827 462.406 690.827 424.168ZM850.603 381.354H824.333V357.985H850.603V319.339H878.14V357.985H918.052V381.354H878.14V440.585C878.14 460.809 884.605 467.995 900.496 467.995C907.75 467.995 911.908 467.372 918.052 466.349V489.465C910.399 491.627 903.096 492.62 895.19 492.62C865.462 492.62 850.603 476.378 850.603 443.866V381.354ZM1034 404.081C1028.47 390.118 1016.13 379.835 998.004 379.835C974.44 379.835 959.357 396.554 959.357 423.788C959.357 450.341 973.242 467.868 996.874 467.868C1015.45 467.868 1028.71 457.06 1034 443.613V404.081ZM1061.54 489.718H1034.51V471.276C1026.95 482.133 1013.2 492.873 990.935 492.873C955.121 492.873 931.188 462.893 931.188 423.788C931.188 384.314 955.696 354.821 992.453 354.821C1010.62 354.821 1024.88 362.084 1034.51 374.908V357.985H1061.54V489.718Z" fill="#94A3B8"/>
</svg>
