<svg width="924" height="172" viewBox="0 0 924 172" fill="none" xmlns="http://www.w3.org/2000/svg">
<path d="M911.631 137.415V134.831H913.2C914.031 134.831 915.323 134.923 915.323 135.938C915.323 137.046 914.677 137.323 913.662 137.323H911.631M911.631 139.169H912.739L915.323 143.6H918.093L915.231 138.985C916.616 138.892 917.908 138.246 917.908 136.215C917.908 133.723 916.247 132.985 913.385 132.985H909.323V143.6H911.723L911.631 139.169ZM923.539 138.338C923.539 132.062 918.739 128.462 913.293 128.462C907.939 128.462 903.047 132.062 903.047 138.338C903.047 144.615 907.847 148.215 913.293 148.215C918.739 148.215 923.539 144.615 923.539 138.338ZM920.585 138.338C920.585 142.862 917.262 145.908 913.293 145.908C909.231 145.908 906 142.862 906 138.338C906 133.815 909.323 130.769 913.293 130.769C917.262 130.862 920.585 133.908 920.585 138.338ZM548.031 33.1077V144.892H579.6V33.1077H548.031ZM299.908 32.9231V144.8H331.754V57.9385L356.585 58.0308C364.708 58.0308 370.431 60.0616 374.308 64.2154C379.293 69.4769 381.323 78.1539 381.323 93.7539V144.8H412.154V83.0462C412.154 38.9231 384 32.9231 356.585 32.9231H299.908ZM598.893 33.1077V144.892H650.031C677.262 144.892 686.216 140.369 695.816 130.215C702.647 123.108 706.985 107.415 706.985 90.2462C706.985 74.5539 703.293 60.5231 696.739 51.7539C685.2 36.1539 668.308 33.1077 643.108 33.1077H598.893ZM630.185 57.3846H643.754C663.416 57.3846 676.154 66.1539 676.154 89.1385C676.154 112.031 663.508 120.892 643.754 120.892H630.185V57.3846ZM502.616 33.1077L476.308 121.631L451.108 33.1077H417.047L453.047 144.892H498.462L534.739 33.1077H502.616ZM721.754 144.8H753.323V33.1077H721.754V144.8ZM810.185 33.1077L766.154 144.8H797.262L804.277 125.138H856.431L863.077 144.8H896.862L852.37 33.1077H810.185ZM830.677 53.5077L849.785 105.754H810.923L830.677 53.5077ZM96.3696 51.6616V36.3385C97.8465 36.2462 99.4158 36.1539 100.893 36.1539C142.985 34.8616 170.493 72.2462 170.493 72.2462C170.493 72.2462 140.77 113.6 108.831 113.6C104.216 113.6 100.154 112.862 96.4619 111.569V64.9539C112.8 66.9846 116.123 74.1846 126 90.5231L147.877 72.0616C147.877 72.0616 131.908 51.1077 104.954 51.1077C102 51.2 99.1388 51.3846 96.3696 51.6616ZM96.3696 0.892334V23.7846C97.8465 23.6923 99.4158 23.6 100.893 23.5077C159.323 21.4769 197.447 71.4154 197.447 71.4154C197.447 71.4154 153.693 124.677 108.185 124.677C104.031 124.677 100.154 124.308 96.4619 123.662V137.877C99.6004 138.246 102.923 138.523 106.247 138.523C148.708 138.523 179.354 116.831 209.077 91.2616C213.97 95.2308 234.185 104.831 238.339 108.985C210.093 132.615 144.277 151.723 106.985 151.723C103.385 151.723 99.9696 151.538 96.5542 151.169V171.108H257.816V0.892334L96.3696 0.892334ZM96.3696 111.662V123.754C57.1388 116.738 46.2465 75.9385 46.2465 75.9385C46.2465 75.9385 65.0773 55.0769 96.3696 51.6616V64.9539H96.2773C79.9388 62.9231 67.0158 78.3385 67.0158 78.3385C67.0158 78.3385 74.3081 104.092 96.3696 111.662ZM26.6773 74.1846C26.6773 74.1846 49.9388 39.9385 96.3696 36.3385V23.8769C44.9542 28.0308 0.461914 71.6 0.461914 71.6C0.461914 71.6 25.6619 144.523 96.3696 151.262V137.969C44.4927 131.415 26.6773 74.1846 26.6773 74.1846Z" fill="#94A3B8"/>
</svg>
